PathFileType	4	(x/y/z)	S08_M20_T01
DataRate	CameraRate	NumFrames	NumMarkers	Units	OrigDataRate	OrigDataStartFrame	OrigNumFrames
240	240	4	51	mm	240	379	504
Frame#	Time	Sternum			R.Acromium			L.Acromium			Top.Head			R.ASIS			L.ASIS			R.PSIS			L.PSIS			R.Great.Tro			L.Great.Tro			R.Iliac.Crest			L.Iliac.Crest			V.Sacral			R.Thigh.Upper.Post			R.Thigh.Lower.Ant			R.Thigh.Lower.Post			R.Thigh.Upper.Ant			R.Knee.Lat			R.Knee.Med			R.Shank.Upper.Post			R.Shank.Lower.Ant			R.Shank.Lower.Post			R.Shank.Upper.Ant			R.Ankle.Lat			R.Ankle.Med			R.Heel.Upper			R.Heel.Med			R.Heel.Lat			R.Toe.Lat			R.Toe.Med			R.Toe.Tip			L.Thigh.Upper.Post			L.Thigh.Lower.Ant			L.Thigh.Lower.Post			L.Thigh.Upper.Ant			L.Knee.Lat			L.Knee.Med			L.Shank.Upper.Post			L.Shank.Lower.Ant			L.Shank.Lower.Post			L.Shank.Upper.Ant			L.Ankle.Lat			L.Ankle.Med			L.Heel.Upper			L.Heel.Med			L.Heel.Lat			L.Toe.Lat			L.Toe.Med			L.Toe.Tip			Cervical.Spine			Back			
		X1	Y1	Z1	X2	Y2	Z2	X3	Y3	Z3	X4	Y4	Z4	X5	Y5	Z5	X6	Y6	Z6	X7	Y7	Z7	X8	Y8	Z8	X9	Y9	Z9	X10	Y10	Z10	X11	Y11	Z11	X12	Y12	Z12	X13	Y13	Z13	X14	Y14	Z14	X15	Y15	Z15	X16	Y16	Z16	X17	Y17	Z17	X18	Y18	Z18	X19	Y19	Z19	X20	Y20	Z20	X21	Y21	Z21	X22	Y22	Z22	X23	Y23	Z23	X24	Y24	Z24	X25	Y25	Z25	X26	Y26	Z26	X27	Y27	Z27	X28	Y28	Z28	X29	Y29	Z29	X30	Y30	Z30	X31	Y31	Z31	X32	Y32	Z32	X33	Y33	Z33	X34	Y34	Z34	X35	Y35	Z35	X36	Y36	Z36	X37	Y37	Z37	X38	Y38	Z38	X39	Y39	Z39	X40	Y40	Z40	X41	Y41	Z41	X42	Y42	Z42	X43	Y43	Z43	X44	Y44	Z44	X45	Y45	Z45	X46	Y46	Z46	X47	Y47	Z47	X48	Y48	Z48	X49	Y49	Z49	X50	Y50	Z50	X51	Y51	Z51	

379	1.575	509.37	1231.4	281.72	386.12	1462.9	453.45	370.1	1486.5	117.17	392.97	1783.3	298.68	495.18	1011	390.52	509.34	1026.9	158.56	299.65	1035.4	304.99	307.98	1046.7	212.3	424.88	891.78	450.03	432.66	922.49	80.323	395.04	1073.8	433.7	411.86	1104.4	124.26	287.73	1000.3	253.16	444.58	691.47	440.65	542.61	607.85	427.87	470.53	604.75	426.57	523.28	700.93	442.94	519.53	510.27	423.58	511.67	507	291.11	359.52	421.55	431.89	356.22	332.41	415.16	302.59	369.06	429.04	413.25	386.03	422.31	179.96	257.26	399.91	213.08	238.95	323.71	126.97	267.79	347.55	114.67	241.3	320.97	108.46	251.93	382	NaN	NaN	NaN	230.2	97.659	325.5	282.31	64.411	376.11	435.49	704.45	105.03	529.12	627.14	138.63	461.54	619.91	127.9	508.31	709.85	110.12	485.19	521.48	154.75	480.32	526.45	278.9	423.47	339.99	159.84	488.99	253.1	187.57	419.03	267.99	178.98	487.27	327.56	168.13	434.93	97.082	202.61	460.67	107.59	287.97	384.29	76.074	256.25	397.95	42.662	287.09	390.74	48.04	223.08	565.95	40.185	187.54	586.38	45.603	302.55	648.79	63.89	252.19	311.47	1517.9	280.39	274.5	1232	289.02
380	1.5792	513.93	1232	281.49	390.78	1463.7	453.28	375.14	1487.2	117.08	398.2	1783.9	298.64	499.97	1012	390.18	513.82	1027.4	158.15	304.31	1036	304.89	312.55	1047.1	212.18	430.33	892.76	449.99	436.72	922.73	80.281	399.76	1074.6	433.49	416.29	1104.9	124.01	292.4	1000.7	253.11	452.42	692.6	440.78	551.29	610.05	427.6	479.21	606.12	426.6	530.97	702.92	442.76	529.19	512.15	423.25	520.9	508.91	290.92	370.26	421.33	431.86	368.27	332.09	415.11	314.14	367.97	429.07	424.53	386.56	422.22	193.08	254.29	400.02	226.44	236.45	323.85	139.43	263.24	347.72	127.81	236.23	321.37	121.48	247.07	382.32	NaN	NaN	NaN	247.02	95.74	326.47	300.14	64.169	377.21	438.27	704.92	104.99	531.29	626.91	138.59	463.74	620.2	127.79	511.09	709.76	110.14	486.61	521.48	154.73	481.91	526.5	278.84	424.23	340.15	159.83	489.53	253.09	187.64	419.61	268.17	179.02	488.01	327.54	168.17	435.02	97.259	202.71	460.75	107.6	288.1	384.33	76.147	256.31	397.92	42.698	287.09	390.78	48.137	223.13	566	40.151	187.55	586.47	45.328	302.59	648.91	63.54	252.24	316.31	1518.5	280.18	279.14	1232.8	288.75
381	1.5833	518.5	1232.6	281.26	395.44	1464.4	453.11	380.18	1488	116.98	403.42	1784.5	298.61	504.76	1012.8	389.83	518.28	1027.9	157.74	308.96	1036.5	304.8	317.1	1047.5	212.07	435.77	893.73	449.96	440.72	922.92	80.27	404.47	1075.3	433.28	420.71	1105.3	123.75	297.06	1001.2	253.08	460.22	693.72	440.96	559.9	612.24	427.3	487.84	607.51	426.66	538.63	704.9	442.55	538.77	514.02	422.89	530	510.84	290.73	380.95	421.02	431.84	380.34	331.7	415.05	325.71	366.77	429.1	435.78	387.03	422.11	206.32	251.14	400.14	239.92	233.81	323.99	152.05	258.49	347.9	141.13	231	321.77	134.68	242.01	382.66	NaN	NaN	NaN	264	93.787	327.39	318.11	63.913	378.23	441.03	705.38	104.96	533.46	626.68	138.56	465.94	620.47	127.71	513.85	709.65	110.18	488.06	521.48	154.72	483.51	526.54	278.8	425.01	340.31	159.81	490.09	253.06	187.74	420.2	268.34	179.05	488.77	327.52	168.22	435.13	97.438	202.83	460.81	107.6	288.24	384.35	76.22	256.38	397.88	42.731	287.1	390.82	48.233	223.18	566.05	40.125	187.58	586.56	45.039	302.64	649.04	63.185	252.29	321.15	1519.1	279.98	283.78	1233.5	288.49
382	1.5875	523.06	1233.2	281.02	400.11	1465.1	452.94	385.2	1488.6	116.89	408.63	1785	298.57	509.55	1013.7	389.49	522.73	1028.3	157.32	313.6	1036.9	304.72	321.63	1047.9	211.97	441.2	894.68	449.94	444.65	923.04	80.281	409.19	1076.1	433.07	425.11	1105.8	123.5	301.71	1001.6	253.06	467.97	694.84	441.18	568.43	614.44	426.97	496.41	608.91	426.75	546.26	706.86	442.31	548.25	515.9	422.52	538.97	512.76	290.53	391.62	420.64	431.83	392.44	331.25	414.99	337.3	365.46	429.13	447.01	387.46	421.98	219.68	247.81	400.28	253.52	231.05	324.12	164.84	253.56	348.09	154.64	225.61	322.17	148.06	236.75	383.01	NaN	NaN	NaN	281.13	91.808	328.23	336.21	63.645	379.16	443.78	705.81	104.96	535.63	626.43	138.55	468.14	620.72	127.63	516.59	709.52	110.23	489.52	521.46	154.72	485.13	526.57	278.79	425.82	340.45	159.8	490.66	253.04	187.86	420.82	268.52	179.08	489.55	327.49	168.29	435.26	97.617	202.97	460.86	107.59	288.4	384.38	76.293	256.45	397.84	42.761	287.11	390.85	48.327	223.23	566.11	40.107	187.6	586.65	44.738	302.69	649.17	62.824	252.36	325.98	1519.7	279.78	288.41	1234.1	288.23
